HIERARCHY
ROOT hip
{
  OFFSET 0 0 0
  CHANNELS 6 Xposition Yposition Zposition Zrotation Yrotation Xrotation
  JOINT abdomen
  {
    OFFSET 0 20.6881 -0.73152
    CHANNELS 3 Zrotation Xrotation Yrotation
    JOINT chest
    {
      OFFSET 0 11.7043 -0.48768
      CHANNELS 3 Zrotation Xrotation Yrotation
      JOINT neck
      {
        OFFSET 0 22.1894 -2.19456
        CHANNELS 3 Zrotation Xrotation Yrotation
        JOINT head
        {
          OFFSET -0.24384 7.07133 1.2192
          CHANNELS 3 Zrotation Xrotation Yrotation
          JOINT leftEye
          {
            OFFSET 4.14528 8.04674 8.04672
            CHANNELS 3 Zrotation Xrotation Yrotation
            End Site
            {
              OFFSET 1 0 0
            }
          }
          JOINT rightEye
          {
            OFFSET -3.6576 8.04674 8.04672
            CHANNELS 3 Zrotation Xrotation Yrotation
            End Site
            {
              OFFSET 1 0 0
            }
          }
        }
      }
      JOINT rCollar
      {
        OFFSET -2.68224 19.2634 -4.8768
        CHANNELS 3 Zrotation Xrotation Yrotation
        JOINT rShldr
        {
          OFFSET -8.77824 -1.95073 1.46304
          CHANNELS 3 Zrotation Xrotation Yrotation
          JOINT rForeArm
          {
            OFFSET -28.1742 -1.7115 0.48768
            CHANNELS 3 Zrotation Xrotation Yrotation
            JOINT rHand
            {
              OFFSET -22.5879 0.773209 7.07136
              CHANNELS 3 Zrotation Xrotation Yrotation
              JOINT rThumb1
              {
                OFFSET -1.2192 -0.487915 3.41376
                CHANNELS 3 Zrotation Xrotation Yrotation
                JOINT rThumb2
                {
                  OFFSET -3.37035 -0.52449 3.41376
                  CHANNELS 3 Zrotation Xrotation Yrotation
                  End Site
                  {
                    OFFSET -1.78271 -1.18214 1.43049
                  }
                }
              }
              JOINT rIndex1
              {
                OFFSET -7.75947 0.938293 5.60832
                CHANNELS 3 Zrotation Xrotation Yrotation
                JOINT rIndex2
                {
                  OFFSET -2.54057 -0.884171 1.56538
                  CHANNELS 3 Zrotation Xrotation Yrotation
                  End Site
                  {
                    OFFSET -1.62519 -0.234802 1.16502
                  }
                }
              }
              JOINT rMid1
              {
                OFFSET -8.24714 1.18213 3.41376
                CHANNELS 3 Zrotation Xrotation Yrotation
                JOINT rMid2
                {
                  OFFSET -3.10165 -0.590103 1.0647
                  CHANNELS 3 Zrotation Xrotation Yrotation
                  End Site
                  {
                    OFFSET -2.48547 -0.328903 0.83742
                  }
                }
              }
              JOINT rRing1
              {
                OFFSET -8.82822 0.546677 1.51678
                CHANNELS 3 Zrotation Xrotation Yrotation
                JOINT rRing2
                {
                  OFFSET -2.60934 -0.819778 -0.0198488
                  CHANNELS 3 Zrotation Xrotation Yrotation
                  End Site
                  {
                    OFFSET -2.33842 -0.294052 0.168128
                  }
                }
              }
              JOINT rPinky1
              {
                OFFSET -8.27202 -0.0477905 -0.4584
                CHANNELS 3 Zrotation Xrotation Yrotation
                JOINT rPinky2
                {
                  OFFSET -1.82734 -0.647385 -0.700984
                  CHANNELS 3 Zrotation Xrotation Yrotation
                  End Site
                  {
                    OFFSET -1.69225 -0.51767 -0.607171
                  }
                }
              }
            }
          }
        }
      }
      JOINT lCollar
      {
        OFFSET 2.68224 19.2634 -4.8768
        CHANNELS 3 Zrotation Xrotation Yrotation
        JOINT lShldr
        {
          OFFSET 8.77824 -1.95073 1.46304
          CHANNELS 3 Zrotation Xrotation Yrotation
          JOINT lForeArm
          {
            OFFSET 28.1742 -1.7115 0.48768
            CHANNELS 3 Zrotation Xrotation Yrotation
            JOINT lHand
            {
              OFFSET 22.5879 0.773209 7.07136
              CHANNELS 3 Zrotation Xrotation Yrotation
              JOINT lThumb1
              {
                OFFSET 1.2192 -0.487915 3.41376
                CHANNELS 3 Zrotation Xrotation Yrotation
                JOINT lThumb2
                {
                  OFFSET 3.37035 -0.52449 3.41376
                  CHANNELS 3 Zrotation Xrotation Yrotation
                  End Site
                  {
                    OFFSET 1.78271 -1.18214 1.43049
                  }
                }
              }
              JOINT lIndex1
              {
                OFFSET 7.75947 0.938293 5.60832
                CHANNELS 3 Zrotation Xrotation Yrotation
                JOINT lIndex2
                {
                  OFFSET 2.54057 -0.884171 1.56538
                  CHANNELS 3 Zrotation Xrotation Yrotation
                  End Site
                  {
                    OFFSET 1.62519 -0.234802 1.16502
                  }
                }
              }
              JOINT lMid1
              {
                OFFSET 8.24714 1.18213 3.41376
                CHANNELS 3 Zrotation Xrotation Yrotation
                JOINT lMid2
                {
                  OFFSET 3.10165 -0.590103 1.0647
                  CHANNELS 3 Zrotation Xrotation Yrotation
                  End Site
                  {
                    OFFSET 2.48547 -0.328903 0.83742
                  }
                }
              }
              JOINT lRing1
              {
                OFFSET 8.82822 0.546677 1.51678
                CHANNELS 3 Zrotation Xrotation Yrotation
                JOINT lRing2
                {
                  OFFSET 2.60934 -0.819778 -0.0198488
                  CHANNELS 3 Zrotation Xrotation Yrotation
                  End Site
                  {
                    OFFSET 2.33842 -0.294052 0.168128
                  }
                }
              }
              JOINT lPinky1
              {
                OFFSET 8.27202 -0.0477905 -0.4584
                CHANNELS 3 Zrotation Xrotation Yrotation
                JOINT lPinky2
                {
                  OFFSET 1.82734 -0.647385 -0.700984
                  CHANNELS 3 Zrotation Xrotation Yrotation
                  End Site
                  {
                    OFFSET 1.69225 -0.51767 -0.607171
                  }
                }
              }
            }
          }
        }
      }
    }
  }
  JOINT rButtock
  {
    OFFSET -8.77824 4.35084 1.2192
    CHANNELS 3 Zrotation Xrotation Yrotation
    JOINT rThigh
    {
      OFFSET 0 -1.70687 -2.19456
      CHANNELS 3 Zrotation Xrotation Yrotation
      JOINT rShin
      {
        OFFSET 0 -36.8199 0.73152
        CHANNELS 3 Zrotation Xrotation Yrotation
        JOINT rFoot
        {
          OFFSET 0.73152 -45.1104 -5.12064
          CHANNELS 3 Zrotation Xrotation Yrotation
          End Site
          {
            OFFSET -1.1221 -3.69964 12.103
          }
        }
      }
    }
  }
  JOINT lButtock
  {
    OFFSET 8.77824 4.35084 1.2192
    CHANNELS 3 Zrotation Xrotation Yrotation
    JOINT lThigh
    {
      OFFSET 0 -1.70687 -2.19456
      CHANNELS 3 Zrotation Xrotation Yrotation
      JOINT lShin
      {
        OFFSET 0 -36.8199 0.73152
        CHANNELS 3 Zrotation Xrotation Yrotation
        JOINT lFoot
        {
          OFFSET -0.73152 -45.1104 -5.12064
          CHANNELS 3 Zrotation Xrotation Yrotation
          End Site
          {
            OFFSET 1.1221 -3.69964 12.103
          }
        }
      }
    }
  }
}
MOTION
Frames:	4
Frame Time:	0.03333
-0.0867100025061518 49.625998735427856 0.24900001008063555 12.05479979541508 23.79950046477512 14.174700122263925 -17.50959974867789 10.302099829856232 3.006259951856922 3.257499922739379 -11.908700341521216 0.9068540344995248 -8.43388002109131 15.731399271852796 -11.950500245468048 9.42699038018481 -28.367100679761936 -21.273199613442287 -0.0 0.0 0.0 -0.0 0.0 0.0 -1.6374900338985897e-13 7.203950044431177e-13 -3.7202599071156557e-13 23.46730055411321 -18.38339950957596 60.336402146653576 -11.063700073258502 -4.813309867075679 19.812000168828533 -0.690435008336028 22.913800806795596 3.405750032448152 -4.0360300644141e-09 -1.090680025602422e-08 4.2915900184857045e-10 -6.9655403843150195e-09 -1.8521400409878852e-08 8.168099760420336e-10 -4.0360300644141e-09 -1.090680025602422e-08 4.2914901291902396e-10 7.730910121524428 5.474879855648998 0.41731399283890674 -4.0360400036474794e-09 -1.090680025602422e-08 4.291549764590517e-10 2.90554006136521 0.9651829962377875 0.10290200252939893 -4.0360400036474794e-09 -1.090680025602422e-08 4.291640211614271e-10 10.278599710243157 0.7318009818271524 0.025912300303053633 -4.0360400036474794e-09 -1.090680025602422e-08 4.291779857843254e-10 2.221669932038622 -0.7334870246959406 -0.20891999872313852 -1.639089993256212e-13 7.203950044431177e-13 -3.7222399887654927e-13 -112.10599854568365 50.828898350306304 51.825798610615514 28.15970027806721 -39.46890040198442 -82.97509830160669 9.649060320669435 -62.675099899600966 15.783499954841654 -2.3972299826772663e-09 -3.5596298863124166e-09 1.251069941549502e-10 -4.121579829097435e-09 -5.88850000843632e-09 8.482459821596162e-11 -2.3972399219106457e-09 -3.5596298863124166e-09 1.251200021266357e-10 -7.730910121524428 5.474879855648998 -0.41731399283890674 -2.3972200434438865e-09 -3.5596298863124166e-09 1.251039999608946e-10 -2.90554006136521 0.9651829962377875 -0.10290200252939893 -2.3972399219106457e-09 -3.559639825545796e-09 1.251039999608946e-10 -10.278599710243157 0.7318009818271524 -0.025912300303053633 -2.3972200434438865e-09 -3.559619947079037e-09 1.250910044132508e-10 -2.221669932038622 -0.7334870246959406 0.20891999872313852 -2.0321699793705798e-16 0.0 -3.882510030490358e-19 -84.8621019843628 -61.689797300502434 -74.52379788303726 -5.68316007108619 81.22650157219172 6.481630102515014 -1.8318900325696237 -5.0529099149519645 -6.487629996814047 2.0321699793705798e-16 0.0 3.882510030490358e-19 8.4658495752752 20.976299827958293 -0.38295899508738884 -0.28988699547538693 18.613800573300708 -2.637850006753601 4.978109952030216 -12.27659994342749 34.309901427522874
-0.17844000249169767 49.70119893550873 0.5680000176653266 11.773899728061844 23.627999537357976 14.535899308594416 -16.59250000353652 10.45089976979319 2.8203400682150597 2.7599099695333718 -12.205600127005207 0.8229279783512874 -8.492530001720564 15.566600467558729 -11.84639962478059 9.33805960964395 -28.57109964725 -21.066499306137484 -0.0 0.0 0.0 -0.0 0.0 0.0 -2.963840083344296e-14 3.5174798909500974e-13 -3.4517099987426686e-14 22.845200094319278 -18.285399955364618 60.431997474277075 -11.188900002065775 -4.89574982347091 20.05089969542807 -0.6789170148787123 22.73469958637952 3.376079904137028 -2.420789941480207e-09 -9.367830033136492e-09 -4.414759980295393e-10 -4.18808005908548e-09 -1.6019499764127294e-08 -7.165089975307381e-10 -2.420789941480207e-09 -9.367819696333777e-09 -4.4148598695908577e-10 7.730910121524428 5.474879855648998 0.41731399283890674 -2.4208000794982543e-09 -9.367819696333777e-09 -4.41480023419058e-10 2.90554006136521 0.9651829962377875 0.10290200252939893 -2.420789941480207e-09 -9.367819696333777e-09 -4.4147202233618747e-10 10.278599710243157 0.7318009818271524 0.025912300303053633 -2.420789941480207e-09 -9.367819696333777e-09 -4.4146098978713614e-10 2.221669932038622 -0.7334870246959406 -0.20891999872313852 -2.974429940979216e-14 3.5175000314864865e-13 -3.4687900229004984e-14 -112.24999942395503 51.32130034795087 52.0596984387426 28.170599552435256 -39.39449915135547 -82.8433985940305 9.40893989775576 -62.279201644739516 15.51280077501383 -2.223840056370607e-09 -3.145300021881502e-09 -1.1892500064855958e-11 -3.818249931556924e-09 -5.202250013006355e-09 -1.3317799953233215e-10 -2.223849995603986e-09 -3.145300021881502e-09 -1.1882900163115983e-11 -7.730910121524428 5.474879855648998 -0.41731399283890674 -2.223840056370607e-09 -3.1452900826481223e-09 -1.1896700167461436e-11 -2.90554006136521 0.9651829962377875 -0.10290200252939893 -2.223849995603986e-09 -3.145300021881502e-09 -1.1896700167461436e-11 -10.278599710243157 0.7318009818271524 -0.025912300303053633 -2.223840056370607e-09 -3.1452900826481223e-09 -1.1907400373396632e-11 -2.221669932038622 -0.7334870246959406 0.20891999872313852 -2.0321699793705798e-16 0.0 -3.882510030490358e-19 -85.2271004634191 -61.58530223639041 -75.489101688246 -5.991490178146198 81.70139779499354 6.887120077405276 -2.4801599352816357 -5.2103999899472955 -9.106879904353823 2.0321699793705798e-16 0.0 3.882510030490358e-19 8.547890392490809 21.25700011227831 -0.6392139790070743 -0.286249012607856 17.64639990001678 -2.620529927678918 4.462919881993556 -11.742900060740094 33.834598808465444
-0.2970099973026663 49.79810118675232 0.9590000146999955 11.503700005817079 23.540400653705273 14.998099917276472 -15.675499296138119 10.527700124368106 2.62224003629236 2.3008599990493965 -12.505599964598739 0.7408730205096632 -8.550819689871098 15.38409952048328 -11.742000183316947 9.26544018461473 -28.767800557609906 -20.853300073837413 -0.0 0.0 0.0 -0.0 0.0 0.0 1.7696399795032164e-13 -1.6618599616010767e-13 1.5271600542296226e-13 22.236900031743357 -18.20920065743666 60.49730091293157 -11.339700333655902 -4.9962799627697425 20.339099527456757 -0.6683840094049063 22.569200687695528 3.3487100554723175 3.7356300540892195e-10 2.585080052362365e-10 -2.0883199013404616e-10 6.44402990220447e-10 4.219450068693422e-10 -3.6635999328257814e-10 3.7356601202701927e-10 2.585099930829124e-10 -2.0884200391167608e-10 7.730910121524428 5.474879855648998 0.41731399283890674 3.73562011485584e-10 2.585089991595745e-10 -2.0883499675214347e-10 2.90554006136521 0.9651829962377875 0.10290200252939893 3.735769948799037e-10 2.585099930829124e-10 -2.0883000228737023e-10 10.278599710243157 0.7318009818271524 0.025912300303053633 3.73562011485584e-10 2.585080052362365e-10 -2.0882299512783765e-10 2.221669932038622 -0.7334870246959406 -0.20891999872313852 1.7693400553709618e-13 -1.6618200445138956e-13 1.5256700185224138e-13 -112.46000042017624 51.770501399095096 52.334900420780755 28.179299505890558 -39.33389829794453 -82.7363012278447 9.149889605557393 -61.83730206581803 15.219500499222436 -7.643129828739693e-10 -8.731889852873249e-10 -1.5306100106670856e-10 -1.3056899549674432e-09 -1.4303899623635833e-09 -2.969450085617231e-10 -7.643189961101639e-10 -8.731939549040147e-10 -1.5305500025455565e-10 -7.730910121524428 5.474879855648998 -0.41731399283890674 -7.643090071806175e-10 -8.731820278239593e-10 -1.5306399526076416e-10 -2.90554006136521 0.9651829962377875 -0.10290200252939893 -7.643219778801778e-10 -8.731830217472971e-10 -1.5306399526076416e-10 -10.278599710243157 0.7318009818271524 -0.025912300303053633 -7.643119889506313e-10 -8.731860035173111e-10 -1.5307399661435234e-10 -2.221669932038622 -0.7334870246959406 0.20891999872313852 -2.0321699793705798e-16 0.0 -3.882510030490358e-19 -85.63810026653546 -61.38379799549669 -76.65119690382113 -6.367799877354874 82.20039775537634 7.353250179294205 -3.111289905158324 -5.366240147371245 -11.502700236877317 2.0321699793705798e-16 0.0 3.882510030490358e-19 8.65230007923821 21.567700294980312 -0.8655070041111766 -0.2810110045663967 16.55689935003512 -2.6025900089370566 3.8716201602617963 -11.120900346236422 33.246799558683314
-0.4425199993420392 49.91390109062195 1.420999993570149 11.303700114088057 23.478000045448034 15.548500466258194 -14.92789923298708 10.58629973235223 2.3666599070791836 2.0003799137798484 -12.836600323287666 0.6546940157915264 -8.602600207742611 15.153599419015567 -11.639700171249434 9.228270295151521 -28.980598516296237 -20.630200482335407 -0.0 0.0 0.0 -0.0 0.0 0.0 2.472840013136846e-13 -1.9088500324120105e-13 -5.968819760162862e-13 21.69429955879379 -18.169199654562483 60.56069872880763 -11.533699904199066 -5.127130165567908 20.710800129636144 -0.6600200158794025 22.4365993951489 3.326850035033692 1.7512599232260287e-09 1.8987599753978413e-08 3.469760133232983e-09 3.0835000553586575e-09 3.2858599844675606e-08 5.961719955327626e-09 1.7512599232260287e-09 1.8987599753978413e-08 3.4697501939996037e-09 7.730910121524428 5.474879855648998 0.41731399283890674 1.7512599232260287e-09 1.8987599753978413e-08 3.469760133232983e-09 2.90554006136521 0.9651829962377875 0.10290200252939893 1.7512700612440759e-09 1.8987599753978413e-08 3.469760133232983e-09 10.278599710243157 0.7318009818271524 0.025912300303053633 1.7512599232260287e-09 1.8987599753978413e-08 3.469760133232983e-09 2.221669932038622 -0.7334870246959406 -0.20891999872313852 2.4726199231789534e-13 -1.908819942935959e-13 -5.970779943933375e-13 -112.82499889923255 52.1127007067019 52.70839907025915 28.183600817520375 -39.30460020149976 -82.68370194104644 8.898670125242447 -61.39409792076508 14.934000299463195 2.091150098045295e-09 3.163669911798297e-09 5.6536701394879075e-11 3.5904601955478477e-09 5.293789954862892e-09 1.867739985832594e-10 2.091139960027248e-09 3.163669911798297e-09 5.654810045316127e-11 -7.730910121524428 5.474879855648998 -0.41731399283890674 2.091150098045295e-09 3.163669911798297e-09 5.6536701394879075e-11 -2.90554006136521 0.9651829962377875 -0.10290200252939893 2.091139960027248e-09 3.163669911798297e-09 5.65404969396259e-11 -10.278599710243157 0.7318009818271524 -0.025912300303053633 2.091150098045295e-09 3.163669911798297e-09 5.6523799027548214e-11 -2.221669932038622 -0.7334870246959406 0.20891999872313852 -2.0321699793705798e-16 0.0 -3.882510030490358e-19 -86.12740135829682 -61.079601860431836 -77.90879865456057 -6.7906598770781255 82.68719899790149 7.8567802626440075 -3.6934000342486537 -5.312819957212106 -13.792000354199878 2.0321699793705798e-16 0.0 3.882510030490358e-19 8.763860120272966 21.78799950892261 -0.9107909982258025 -0.27413500510417727 15.504500387624972 -2.5835500028519998 3.205840000395399 -10.438700198161902 32.38500044015696
